# xmcd
#
# Track frame offsets: 
#        150
#        14662
#        24412
#        37387
#        55425
#        69187
#        78787
#        93337
#        107437
#        123187
#        137250
#        146775
#
# Disc length: 2103 seconds
#
# Revision: 0
# Processed by: cddbd v1.4b42PL0 Copyright (c) Steve Scherf et al.
# Submitted via: ExactAudioCopy v0.90a11
#
DISCID=9a08350c
DTITLE=Jimmy Sturr - Touched By A Polka With Mel Tillis
DYEAR=1900
DGENRE=
TTITLE0=Tic Toc Polka
TTITLE1=If You've Got The Money I've Got The Time
TTITLE2=Melody Polka
TTITLE3=St. Patty's Polka Medley
TTITLE4=Sunrise Oberek
TTITLE5=If I Could Catch A Rainbow Polka
TTITLE6=San Antonio Rose Polka
TTITLE7=Don't Cry Daddy Polka
TTITLE8=Little Girl Of Mine Waltz
TTITLE9=Come Polka With Us
TTITLE10=Thibodeaux And His Cajun Band
TTITLE11=Time Changes Everything Polka
EXTD=
EXTT0=
EXTT1=
EXTT2=
EXTT3=
EXTT4=
EXTT5=
EXTT6=
EXTT7=
EXTT8=
EXTT9=
EXTT10=
EXTT11=
PLAYORDER=
